<svg width="63" height="14" viewBox="0 0 63 14" fill="none" xmlns="http://www.w3.org/2000/svg">
<path d="M19.5385 2.19231C19.3077 1.33333 18.6282 0.653846 17.7692 0.423077C16.218 0 9.97436 0 9.97436 0C9.97436 0 3.73077 0.0128205 2.17949 0.435897C1.32051 0.666667 0.641026 1.34615 0.410256 2.20513C-3.05665e-08 3.75641 0 7 0 7C0 7 -3.05665e-08 10.2436 0.423077 11.8077C0.653846 12.6667 1.33333 13.3462 2.19231 13.5769C3.74359 14 9.98718 14 9.98718 14C9.98718 14 16.2308 14 17.7821 13.5769C18.641 13.3462 19.3205 12.6667 19.5513 11.8077C19.9744 10.2564 19.9744 7 19.9744 7C19.9744 7 19.9615 3.75641 19.5385 2.19231Z" fill="#FF0000"/>
<path d="M7.98706 10L13.1665 7L7.98706 4V10Z" fill="white"/>
<path d="M28.9744 12.7308C28.577 12.4615 28.2949 12.0513 28.1282 11.4872C27.9616 10.9231 27.8846 10.1795 27.8846 9.24358V7.97434C27.8846 7.03845 27.9744 6.26922 28.1667 5.70511C28.359 5.12819 28.6539 4.71793 29.0641 4.46152C29.4744 4.20511 30 4.06409 30.6539 4.06409C31.2949 4.06409 31.8205 4.19229 32.2052 4.46152C32.5898 4.73075 32.8846 5.14101 33.0641 5.70511C33.2436 6.26922 33.3334 7.02563 33.3334 7.96152V9.23075C33.3334 10.1667 33.2436 10.9102 33.0641 11.4743C32.8846 12.0384 32.6026 12.4487 32.2052 12.7179C31.8077 12.9743 31.2693 13.1154 30.6026 13.1154C29.9103 13.1282 29.3718 12.9872 28.9744 12.7308ZM31.1923 11.359C31.3077 11.0769 31.359 10.6025 31.359 9.96152V7.23075C31.359 6.60255 31.3077 6.14101 31.1923 5.85896C31.077 5.56409 30.8846 5.42306 30.6154 5.42306C30.3462 5.42306 30.1667 5.56409 30.0513 5.85896C29.9359 6.15383 29.8846 6.60255 29.8846 7.23075V9.96152C29.8846 10.6025 29.9359 11.0769 30.0385 11.359C30.1411 11.641 30.3334 11.782 30.6154 11.782C30.8846 11.782 31.077 11.641 31.1923 11.359Z" fill="#282828"/>
<path d="M59.2948 9.26921V9.71793C59.2948 10.282 59.3076 10.7051 59.3461 10.9872C59.3845 11.2692 59.4486 11.4743 59.5512 11.6025C59.6538 11.7308 59.8204 11.7949 60.0384 11.7949C60.3332 11.7949 60.5384 11.6795 60.6409 11.4487C60.7563 11.2179 60.8076 10.8333 60.8204 10.3077L62.5255 10.4102C62.5384 10.4872 62.5384 10.5897 62.5384 10.7179C62.5384 11.5256 62.3204 12.1282 61.8717 12.5256C61.423 12.9231 60.8076 13.1282 59.9999 13.1282C59.0255 13.1282 58.3461 12.8205 57.9614 12.2179C57.5768 11.6154 57.3717 10.6667 57.3717 9.39742V7.84614C57.3717 6.53845 57.5768 5.57691 57.9743 4.97434C58.3845 4.37178 59.0768 4.06409 60.0512 4.06409C60.7307 4.06409 61.2435 4.19229 61.6025 4.43588C61.9614 4.67947 62.2179 5.06409 62.3717 5.58973C62.5255 6.11537 62.5897 6.83332 62.5897 7.75639V9.25639H59.2948V9.26921ZM59.5512 5.57691C59.4486 5.70511 59.3845 5.89742 59.3461 6.17947C59.3076 6.46152 59.2948 6.8846 59.2948 7.46152V8.08973H60.7307V7.46152C60.7307 6.89742 60.7179 6.47434 60.6794 6.17947C60.6409 5.8846 60.5768 5.67947 60.4743 5.56409C60.3717 5.4487 60.2179 5.3846 60.0127 5.3846C59.7948 5.39742 59.6409 5.46152 59.5512 5.57691Z" fill="#282828"/>
<path d="M24.1795 9.10263L21.9359 1.00006H23.8975L24.6795 4.66673C24.8846 5.57699 25.0257 6.34622 25.1282 6.97442H25.1795C25.2436 6.51288 25.3975 5.75647 25.6282 4.67955L26.4359 1.00006H28.3975L26.1282 9.08981V12.9744H24.1923V9.10263H24.1795Z" fill="#282828"/>
<path d="M39.6925 4.23077V12.9872H38.154L37.9873 11.9103H37.9489C37.5258 12.718 36.8976 13.1282 36.0643 13.1282C35.4873 13.1282 35.0514 12.9359 34.7822 12.5513C34.5002 12.1667 34.3719 11.5769 34.3719 10.7692V4.23077H36.3463V10.6539C36.3463 11.0385 36.3848 11.3205 36.4745 11.4872C36.5643 11.6539 36.7053 11.7308 36.8976 11.7308C37.0643 11.7308 37.2309 11.6795 37.3848 11.5769C37.5386 11.4744 37.654 11.3333 37.7309 11.1795V4.23077H39.6925Z" fill="#282828"/>
<path d="M49.8078 4.23077V12.9872H48.2694L48.1027 11.9103H48.0642C47.6411 12.718 47.0129 13.1282 46.1796 13.1282C45.6027 13.1282 45.1668 12.9359 44.8976 12.5513C44.6155 12.1667 44.4873 11.5769 44.4873 10.7692V4.23077H46.4617V10.6539C46.4617 11.0385 46.5001 11.3205 46.5899 11.4872C46.6796 11.6539 46.8206 11.7308 47.0129 11.7308C47.1796 11.7308 47.3463 11.6795 47.5001 11.5769C47.654 11.4744 47.7694 11.3333 47.8463 11.1795V4.23077H49.8078Z" fill="#282828"/>
<path d="M45.0512 2.58981H43.0897V12.9872H41.1666V2.58981H39.2051V1.00006H45.0384V2.58981H45.0512Z" fill="#282828"/>
<path d="M56.3205 5.62825C56.2051 5.07697 56.0128 4.67954 55.7436 4.42313C55.4744 4.17954 55.1154 4.05133 54.641 4.05133C54.282 4.05133 53.9359 4.15389 53.6282 4.35902C53.3077 4.56415 53.0769 4.83338 52.8974 5.16671H52.8846V0.551331H50.9872V12.9744H52.6154L52.8205 12.1411H52.859C53.0128 12.4359 53.2436 12.6667 53.5385 12.8462C53.8462 13.0129 54.1795 13.1026 54.5513 13.1026C55.2179 13.1026 55.7051 12.7949 56.0256 12.1795C56.3333 11.5642 56.5 10.6026 56.5 9.30774V7.92312C56.5 6.94877 56.4359 6.17954 56.3205 5.62825ZM54.5128 9.20518C54.5128 9.8462 54.4872 10.3462 54.4359 10.7052C54.3846 11.0642 54.2949 11.3206 54.1667 11.4744C54.0385 11.6283 53.8718 11.7052 53.6667 11.7052C53.5 11.7052 53.359 11.6667 53.2179 11.5898C53.0769 11.5129 52.9744 11.3975 52.8846 11.2436V6.26928C52.9487 6.02569 53.0641 5.83338 53.2308 5.67954C53.3974 5.52569 53.5641 5.44877 53.7564 5.44877C53.9615 5.44877 54.1154 5.52569 54.2179 5.67954C54.3333 5.83338 54.3974 6.10261 54.4487 6.47441C54.4872 6.8462 54.5128 7.37184 54.5128 8.06415V9.20518Z" fill="#282828"/>
</svg>
 